<?xml version="1.0" encoding="UTF-8" standalone="no"?>
<svg
   xmlns:dc="http://purl.org/dc/elements/1.1/"
   xmlns:cc="http://creativecommons.org/ns#"
   xmlns:rdf="http://www.w3.org/1999/02/22-rdf-syntax-ns#"
   xmlns:svg="http://www.w3.org/2000/svg"
   xmlns="http://www.w3.org/2000/svg"
   xmlns:xlink="http://www.w3.org/1999/xlink"
   xmlns:sodipodi="http://sodipodi.sourceforge.net/DTD/sodipodi-0.dtd"
   xmlns:inkscape="http://www.inkscape.org/namespaces/inkscape"
   viewBox="0 0 496 248"
   version="1.1"
   id="svg3951"
   sodipodi:docname="Skyline_banner.svg"
   inkscape:export-filename="/home/ash/Downloads/Skyline_banner.svg.png"
   inkscape:export-xdpi="96"
   inkscape:export-ydpi="96"
   inkscape:version="0.92.4 5da689c313, 2019-01-14">
  <metadata
     id="metadata3955">
    <rdf:RDF>
      <cc:Work
         rdf:about="">
        <dc:format>image/svg+xml</dc:format>
        <dc:type
           rdf:resource="http://purl.org/dc/dcmitype/StillImage" />
      </cc:Work>
    </rdf:RDF>
  </metadata>
  <sodipodi:namedview
     pagecolor="#ffffff"
     bordercolor="#666666"
     borderopacity="1"
     objecttolerance="10"
     gridtolerance="10"
     guidetolerance="10"
     inkscape:pageopacity="0"
     inkscape:pageshadow="2"
     inkscape:window-width="1920"
     inkscape:window-height="1052"
     id="namedview3953"
     showgrid="false"
     inkscape:zoom="0.69254032"
     inkscape:cx="160.95066"
     inkscape:cy="-258.49838"
     inkscape:window-x="0"
     inkscape:window-y="0"
     inkscape:window-maximized="1"
     inkscape:current-layer="svg3951" />
  <defs
     id="defs3919">
    <style
       id="style3862">.a{fill:url(#a);}.b{fill:url(#b);}.c{fill:#fff;}.d{fill:url(#c);}.e{fill:url(#d);}.f{fill:url(#e);}.g{fill:url(#f);}.h{fill:url(#g);}.i{fill:url(#h);}.j{fill:url(#i);}.k{fill:url(#j);}.l{fill:url(#k);}.m{fill:url(#l);}.n{fill:none;stroke-linecap:round;stroke-linejoin:round;stroke-width:4px;stroke:url(#m);}</style>
    <linearGradient
       id="a"
       x1="12.53"
       y1="259.95"
       x2="483.47"
       y2="-11.95"
       gradientUnits="userSpaceOnUse">
      <stop
         offset="0"
         stop-color="#9e005d"
         id="stop3864" />
      <stop
         offset="0.11"
         stop-color="#82045e"
         id="stop3866" />
      <stop
         offset="0.3"
         stop-color="#5d0a60"
         id="stop3868" />
      <stop
         offset="0.48"
         stop-color="#400e62"
         id="stop3870" />
      <stop
         offset="0.65"
         stop-color="#2c1163"
         id="stop3872" />
      <stop
         offset="0.83"
         stop-color="#1f1364"
         id="stop3874" />
      <stop
         offset="1"
         stop-color="#1b1464"
         id="stop3876" />
    </linearGradient>
    <linearGradient
       id="b"
       x1="124"
       y1="232"
       x2="124"
       y2="132"
       gradientUnits="userSpaceOnUse">
      <stop
         offset="0"
         stop-color="#9e005d"
         id="stop3879" />
      <stop
         offset="0.03"
         stop-color="#a1015d"
         stop-opacity="0.94"
         id="stop3881" />
      <stop
         offset="0.19"
         stop-color="#b1075c"
         stop-opacity="0.66"
         id="stop3883" />
      <stop
         offset="0.36"
         stop-color="#bd0c5b"
         stop-opacity="0.42"
         id="stop3885" />
      <stop
         offset="0.52"
         stop-color="#c70f5b"
         stop-opacity="0.24"
         id="stop3887" />
      <stop
         offset="0.69"
         stop-color="#ce125a"
         stop-opacity="0.11"
         id="stop3889" />
      <stop
         offset="0.85"
         stop-color="#d3135a"
         stop-opacity="0.03"
         id="stop3891" />
      <stop
         offset="1"
         stop-color="#d4145a"
         stop-opacity="0"
         id="stop3893" />
    </linearGradient>
    <linearGradient
       id="c"
       x1="32.31"
       y1="35.73"
       x2="64.31"
       y2="67.73"
       gradientTransform="translate(-26.3 113.6) rotate(-45)"
       gradientUnits="userSpaceOnUse">
      <stop
         offset="0"
         stop-color="#9e005d"
         id="stop3896" />
      <stop
         offset="1"
         stop-color="#fff"
         stop-opacity="0"
         id="stop3898" />
    </linearGradient>
    <linearGradient
       id="d"
       x1="149.74"
       y1="73.39"
       x2="181.75"
       y2="41.38"
       gradientTransform="translate(-26.3 113.6) rotate(-45)"
       gradientUnits="userSpaceOnUse">
      <stop
         offset="0"
         stop-color="#23f6ff"
         id="stop3901" />
      <stop
         offset="1"
         stop-color="#fff"
         stop-opacity="0"
         id="stop3903" />
    </linearGradient>
    <linearGradient
       id="e"
       x1="69.84"
       y1="20.66"
       x2="144.54"
       y2="95.36"
       gradientTransform="translate(-16.6 20.8)"
       xlink:href="#c" />
    <linearGradient
       id="f"
       x1="261.75"
       y1="139.7"
       x2="261.75"
       y2="104.65"
       gradientUnits="userSpaceOnUse">
      <stop
         offset="0"
         stop-color="#fff"
         stop-opacity="0"
         id="stop3907" />
      <stop
         offset="1"
         stop-color="#fff"
         id="stop3909" />
    </linearGradient>
    <linearGradient
       id="g"
       x1="288.2"
       y1="139.4"
       x2="288.2"
       y2="103.4"
       xlink:href="#f"
       gradientTransform="translate(-89.142858,-1.1428572)" />
    <linearGradient
       id="h"
       x1="309.23"
       y1="149.05"
       x2="309.23"
       y2="115.9"
       xlink:href="#f"
       gradientTransform="translate(-89.142858,-1.1428572)" />
    <linearGradient
       id="i"
       x1="327.05"
       y1="139.4"
       x2="327.05"
       y2="103.4"
       xlink:href="#f"
       gradientTransform="translate(-89.142858,-1.1428572)" />
    <linearGradient
       id="j"
       x1="336.2"
       y1="139.4"
       x2="336.2"
       y2="107.3"
       xlink:href="#f"
       gradientTransform="translate(-89.142858,-1.1428572)" />
    <linearGradient
       id="k"
       x1="353.82"
       y1="139.4"
       x2="353.82"
       y2="115.6"
       xlink:href="#f"
       gradientTransform="translate(-89.142858,-1.1428572)" />
    <linearGradient
       id="l"
       x1="377.77"
       y1="139.65"
       x2="377.77"
       y2="115.6"
       xlink:href="#f"
       gradientTransform="translate(-89.142858,-1.1428572)" />
    <linearGradient
       id="m"
       x1="214"
       y1="125.3"
       x2="494"
       y2="125.3"
       xlink:href="#f"
       gradientTransform="translate(-89.142858,-1.1428572)" />
    <linearGradient
       inkscape:collect="always"
       xlink:href="#f"
       id="linearGradient55"
       gradientUnits="userSpaceOnUse"
       x1="261.75"
       y1="139.7"
       x2="261.75"
       y2="104.65"
       gradientTransform="translate(-89.142858,-1.1428572)" />
  </defs>
  <title
     id="title3921">Skyline_banner</title>
  <path
     class="c"
     d="m 113.75714,51.757143 0.9,1.5 a 3,3 0 0 0 0.8,0.8 l 1.5,0.9 a 2.2,2.2 0 0 1 0,3.8 l -1.5,0.9 a 3,3 0 0 0 -0.8,0.8 l -0.9,1.5 a 2.2,2.2 0 0 1 -3.8,0 l -0.9,-1.5 a 3,3 0 0 0 -0.8,-0.8 l -1.5,-0.9 a 2.2,2.2 0 0 1 0,-3.8 l 1.5,-0.9 a 3,3 0 0 0 0.8,-0.8 l 0.9,-1.5 a 2.2,2.2 0 0 1 3.8,0 z"
     id="path3927"
     inkscape:connector-curvature="0"
     style="fill:#ffffff"
     inkscape:export-xdpi="95.365021"
     inkscape:export-ydpi="95.365021" />
  <path
     class="g"
     d="m 172.95714,106.55714 c -5.3,0 -7.3,2.6 -7.3,5.5 0,8.3 18.9,4.7 18.9,16.8 0,6.3 -4.3,9.7 -12,9.7 -5.7,0 -9.9,-2.9 -11.7,-6.2 a 3.7,3.7 0 0 1 -0.2,-0.9 1.6,1.6 0 0 1 1.6,-1.6 1.6,1.6 0 0 1 1.4,0.8 9.8,9.8 0 0 0 8.9,4.8 c 5.5,0 8.6,-2.2 8.6,-6.6 0,-9.4 -18.9,-5 -18.9,-16.8 0,-4.6 3.4,-8.6 10.7,-8.6 4.7,0 8.6,2 10.7,5.2 a 1.6,1.6 0 0 1 0.3,0.9 1.6,1.6 0 0 1 -1.6,1.6 1.5,1.5 0 0 1 -1.3,-0.6 9.8,9.8 0 0 0 -8.1,-4 z"
     id="path3935"
     style="fill:url(#linearGradient55)"
     inkscape:connector-curvature="0"
     inkscape:export-xdpi="95.365021"
     inkscape:export-ydpi="95.365021" />
  <path
     class="h"
     d="m 205.15714,137.55714 -8.9,-11.4 -3,2.4 v 8.1 a 1.6,1.6 0 1 1 -3.2,0 v -32.8 a 1.6,1.6 0 1 1 3.2,0 v 20.9 l 11.8,-9.6 a 1.4,1.4 0 0 1 1.1,-0.4 1.6,1.6 0 0 1 1.6,1.6 1.7,1.7 0 0 1 -0.7,1.3 l -8.2,6.5 8.9,11.5 a 1.4,1.4 0 0 1 0.4,1 1.6,1.6 0 0 1 -1.6,1.6 1.6,1.6 0 0 1 -1.4,-0.7 z"
     id="path3937"
     style="fill:url(#g)"
     inkscape:connector-curvature="0"
     inkscape:export-xdpi="95.365021"
     inkscape:export-ydpi="95.365021" />
  <path
     class="i"
     d="m 218.75714,136.85714 -8.4,-19.8 c 0,-0.2 -0.2,-0.4 -0.2,-0.7 a 1.6,1.6 0 0 1 1.7,-1.6 1.6,1.6 0 0 1 1.5,1 l 7,17.3 7.1,-17.3 a 1.5,1.5 0 0 1 1.5,-1 1.6,1.6 0 0 1 1.6,1.6 1.4,1.4 0 0 1 -0.2,0.7 l -9.8,23.5 c -2.1,4.9 -4.7,7.4 -9.4,7.4 a 1.5,1.5 0 0 1 -1.5,-1.5 1.5,1.5 0 0 1 1.5,-1.5 c 4.4,0 5.5,-3 7.6,-8.1 z"
     id="path3939"
     style="fill:url(#h)"
     inkscape:connector-curvature="0"
     inkscape:export-xdpi="95.365021"
     inkscape:export-ydpi="95.365021" />
  <path
     class="j"
     d="m 237.75714,103.85714 v 28.5 c 0,2 0.6,2.9 2,2.9 a 1.5,1.5 0 0 1 0,3 c -3.4,0 -5.2,-2 -5.2,-5.9 v -28.5 a 1.6,1.6 0 1 1 3.2,0 z"
     id="path3941"
     style="fill:url(#i)"
     inkscape:connector-curvature="0"
     inkscape:export-xdpi="95.365021"
     inkscape:export-ydpi="95.365021" />
  <path
     class="k"
     d="m 245.15714,108.15714 c 0,-1.5 0.7,-2 1.9,-2 1.2,0 1.9,0.5 1.9,2 a 1.9,1.9 0 0 1 -3.8,0 z m 3.5,28.5 a 1.6,1.6 0 0 1 -3.2,0 v -20.3 a 1.6,1.6 0 0 1 3.2,0 z"
     id="path3943"
     style="fill:url(#j)"
     inkscape:connector-curvature="0"
     inkscape:export-xdpi="95.365021"
     inkscape:export-ydpi="95.365021" />
  <path
     class="l"
     d="m 274.15714,123.25714 v 13.4 a 1.6,1.6 0 0 1 -3.2,0 v -12.7 c 0,-4 -1.1,-6.7 -6,-6.7 -4.9,0 -6.6,3 -6.6,7 v 12.4 a 1.6,1.6 0 0 1 -3.2,0 v -20.3 a 1.6,1.6 0 0 1 3.2,0 v 1.6 c 0.9,-1.9 3.4,-3.5 6.6,-3.5 7.7,0 9.2,4.6 9.2,8.8 z"
     id="path3945"
     style="fill:url(#k)"
     inkscape:connector-curvature="0"
     inkscape:export-xdpi="95.365021"
     inkscape:export-ydpi="95.365021" />
  <path
     class="m"
     d="m 288.95714,114.45714 c 8,0 9.6,6.3 9.6,9.7 0,1.5 0,3.2 -2,3.2 h -14.6 c 0,5 2.8,8.2 7.5,8.2 a 9,9 0 0 0 6,-2.2 1.3,1.3 0 0 1 0.9,-0.2 1.5,1.5 0 0 1 1.5,1.4 1.4,1.4 0 0 1 -0.6,1.1 c -0.7,0.8 -3.3,2.9 -7.8,2.9 -6.6,0 -10.8,-3.7 -10.8,-12.1 0,-8.4 3.8,-12 10.3,-12 z m 0,2.9 c -4.3,0 -6.7,2.8 -7,7.2 h 13.4 c 0,-3.6 -1.2,-7.2 -6.4,-7.2 z"
     id="path3947"
     style="fill:url(#l)"
     inkscape:connector-curvature="0"
     inkscape:export-xdpi="95.365021"
     inkscape:export-ydpi="95.365021" />
  <path
     class="n"
     d="m 126.85714,123.85714 c 11.2,9 61.8,47.8 134,42 88.2,-7.1 135.9,-74.999997 142,-83.999997"
     id="path3949"
     style="fill:none;stroke:url(#m);stroke-width:4px;stroke-linecap:round;stroke-linejoin:round"
     inkscape:connector-curvature="0"
     inkscape:export-xdpi="95.365021"
     inkscape:export-ydpi="95.365021" />
</svg>
